# xmcd CD database file
#
# Track frame offsets:
#	150
#	29352
#	50855
#	81430
#	108687
#	132132
#	159412
#	188442
#	215902
#	240377
#	252450
#	260992
#	282197
#	306785
#
# Disc length: 4323 seconds
#
# Revision: 2
# Processed by: cddbd v1.5PL3 Copyright (c) Steve Scherf et al.
# Submitted via: CDex 1.51
#
DISCID=d210e10e
DTITLE=Mynta - Cool Nights - The Very Best Of Mynta
DYEAR=2001
DGENRE=J ポップ
TTITLE0=Yellow Fellow
TTITLE1=Is It Possible?
TTITLE2=Bala Nak
TTITLE3=M'Bira
TTITLE4=Song For Jens
TTITLE5=Bombay Kebab
TTITLE6=Tove
TTITLE7=Emma
TTITLE8=Faroe Islands
TTITLE9=Walking In The Night
TTITLE10=Playing
TTITLE11=Ethnic Call
TTITLE12=Desh
TTITLE13=Together
EXTD=Track 1-3 from "Indian Time"\nTrack 4-6 from "Hot Madras"\nTrack 7-9 from "Nandu's Dance"\nTrack 10-14 from "First Summer" YEAR: 2001
EXTT0=
EXTT1=
EXTT2=
EXTT3=
EXTT4=
EXTT5=
EXTT6=
EXTT7=
EXTT8=
EXTT9=
EXTT10=
EXTT11=
EXTT12=
EXTT13=
PLAYORDER=
